<?xml version="1.0" encoding="UTF-8" standalone="no"?>
<!DOCTYPE svg PUBLIC "-//W3C//DTD SVG 1.1//EN"
 "http://www.w3.org/Graphics/SVG/1.1/DTD/svg11.dtd">
<!-- Generated by graphviz version 2.43.0 (0)
 -->
<!-- Title: G Pages: 1 -->
<svg width="689pt" height="150pt"
 viewBox="0.00 0.00 689.46 150.30" xmlns="http://www.w3.org/2000/svg" xmlns:xlink="http://www.w3.org/1999/xlink">
<g id="graph0" class="graph" transform="scale(1 1) rotate(0) translate(21.6 128.7)">
<title>G</title>
<polygon fill="#111111" stroke="transparent" points="-21.6,21.6 -21.6,-128.7 667.86,-128.7 667.86,21.6 -21.6,21.6"/>
<!-- index.js -->
<g id="node1" class="node">
<title>index.js</title>
<path fill="none" stroke="#c6c5fe" d="M55.64,-85.15C55.64,-85.15 7.83,-85.15 7.83,-85.15 3.8,-85.15 -0.24,-81.12 -0.24,-77.08 -0.24,-77.08 -0.24,-69.02 -0.24,-69.02 -0.24,-64.98 3.8,-60.95 7.83,-60.95 7.83,-60.95 55.64,-60.95 55.64,-60.95 59.67,-60.95 63.7,-64.98 63.7,-69.02 63.7,-69.02 63.7,-77.08 63.7,-77.08 63.7,-81.12 59.67,-85.15 55.64,-85.15"/>
<text text-anchor="middle" x="31.73" y="-69.9" font-family="Arial" font-size="14.00" fill="#c6c5fe">index.js</text>
</g>
<!-- main.js -->
<g id="node2" class="node">
<title>main.js</title>
<path fill="none" stroke="#c6c5fe" d="M151.92,-85.15C151.92,-85.15 107.36,-85.15 107.36,-85.15 103.33,-85.15 99.3,-81.12 99.3,-77.08 99.3,-77.08 99.3,-69.02 99.3,-69.02 99.3,-64.98 103.33,-60.95 107.36,-60.95 107.36,-60.95 151.92,-60.95 151.92,-60.95 155.95,-60.95 159.99,-64.98 159.99,-69.02 159.99,-69.02 159.99,-77.08 159.99,-77.08 159.99,-81.12 155.95,-85.15 151.92,-85.15"/>
<text text-anchor="middle" x="129.64" y="-69.9" font-family="Arial" font-size="14.00" fill="#c6c5fe">main.js</text>
</g>
<!-- index.js&#45;&gt;main.js -->
<g id="edge1" class="edge">
<title>index.js&#45;&gt;main.js</title>
<path fill="none" stroke="#757575" d="M63.61,-73.05C71.78,-73.05 80.72,-73.05 89.28,-73.05"/>
<polygon fill="#757575" stroke="#757575" points="89.46,-76.55 99.46,-73.05 89.46,-69.55 89.46,-76.55"/>
</g>
<!-- oxium.js -->
<g id="node3" class="node">
<title>oxium.js</title>
<path fill="none" stroke="#c6c5fe" d="M273.94,-85.15C273.94,-85.15 222.39,-85.15 222.39,-85.15 218.35,-85.15 214.32,-81.12 214.32,-77.08 214.32,-77.08 214.32,-69.02 214.32,-69.02 214.32,-64.98 218.35,-60.95 222.39,-60.95 222.39,-60.95 273.94,-60.95 273.94,-60.95 277.98,-60.95 282.01,-64.98 282.01,-69.02 282.01,-69.02 282.01,-77.08 282.01,-77.08 282.01,-81.12 277.98,-85.15 273.94,-85.15"/>
<text text-anchor="middle" x="248.17" y="-69.9" font-family="Arial" font-size="14.00" fill="#c6c5fe">oxium.js</text>
</g>
<!-- main.js&#45;&gt;oxium.js -->
<g id="edge2" class="edge">
<title>main.js&#45;&gt;oxium.js</title>
<path fill="none" stroke="#757575" d="M160.05,-73.05C173.39,-73.05 189.44,-73.05 204.11,-73.05"/>
<polygon fill="#757575" stroke="#757575" points="204.48,-76.55 214.48,-73.05 204.48,-69.55 204.48,-76.55"/>
</g>
<!-- util/invariant.js -->
<g id="node4" class="node">
<title>util/invariant.js</title>
<path fill="none" stroke="#cfffac" d="M292.3,-43.15C292.3,-43.15 204.03,-43.15 204.03,-43.15 199.99,-43.15 195.96,-39.12 195.96,-35.08 195.96,-35.08 195.96,-27.02 195.96,-27.02 195.96,-22.98 199.99,-18.95 204.03,-18.95 204.03,-18.95 292.3,-18.95 292.3,-18.95 296.34,-18.95 300.37,-22.98 300.37,-27.02 300.37,-27.02 300.37,-35.08 300.37,-35.08 300.37,-39.12 296.34,-43.15 292.3,-43.15"/>
<text text-anchor="middle" x="248.17" y="-27.9" font-family="Arial" font-size="14.00" fill="#cfffac">util/invariant.js</text>
</g>
<!-- main.js&#45;&gt;util/invariant.js -->
<g id="edge3" class="edge">
<title>main.js&#45;&gt;util/invariant.js</title>
<path fill="none" stroke="#757575" d="M160.05,-62.45C173.43,-57.63 189.53,-51.82 204.23,-46.52"/>
<polygon fill="#757575" stroke="#757575" points="205.43,-49.81 213.65,-43.13 203.05,-43.23 205.43,-49.81"/>
</g>
<!-- util/mutable.js -->
<g id="node5" class="node">
<title>util/mutable.js</title>
<path fill="none" stroke="#cfffac" d="M637.99,-107.15C637.99,-107.15 552.94,-107.15 552.94,-107.15 548.91,-107.15 544.87,-103.12 544.87,-99.08 544.87,-99.08 544.87,-91.02 544.87,-91.02 544.87,-86.98 548.91,-82.95 552.94,-82.95 552.94,-82.95 637.99,-82.95 637.99,-82.95 642.03,-82.95 646.06,-86.98 646.06,-91.02 646.06,-91.02 646.06,-99.08 646.06,-99.08 646.06,-103.12 642.03,-107.15 637.99,-107.15"/>
<text text-anchor="middle" x="595.47" y="-91.9" font-family="Arial" font-size="14.00" fill="#cfffac">util/mutable.js</text>
</g>
<!-- main.js&#45;&gt;util/mutable.js -->
<g id="edge4" class="edge">
<title>main.js&#45;&gt;util/mutable.js</title>
<path fill="none" stroke="#757575" d="M160.05,-84.48C171.09,-88.25 183.86,-92 195.81,-94.05 332.87,-117.59 369.63,-100.48 508.67,-98.05 517.02,-97.9 525.83,-97.68 534.5,-97.41"/>
<polygon fill="#757575" stroke="#757575" points="534.69,-100.91 544.57,-97.09 534.46,-93.91 534.69,-100.91"/>
</g>
<!-- oxium.js&#45;&gt;util/mutable.js -->
<g id="edge5" class="edge">
<title>oxium.js&#45;&gt;util/mutable.js</title>
<path fill="none" stroke="#757575" d="M281.96,-75.14C340,-78.84 461.59,-86.58 534.81,-91.25"/>
<polygon fill="#757575" stroke="#757575" points="534.61,-94.74 544.81,-91.89 535.06,-87.76 534.61,-94.74"/>
</g>
<!-- util/oxi.js -->
<g id="node6" class="node">
<title>util/oxi.js</title>
<path fill="none" stroke="#c6c5fe" d="M449.21,-66.15C449.21,-66.15 395.98,-66.15 395.98,-66.15 391.94,-66.15 387.91,-62.12 387.91,-58.08 387.91,-58.08 387.91,-50.02 387.91,-50.02 387.91,-45.98 391.94,-41.95 395.98,-41.95 395.98,-41.95 449.21,-41.95 449.21,-41.95 453.24,-41.95 457.28,-45.98 457.28,-50.02 457.28,-50.02 457.28,-58.08 457.28,-58.08 457.28,-62.12 453.24,-66.15 449.21,-66.15"/>
<text text-anchor="middle" x="422.59" y="-50.9" font-family="Arial" font-size="14.00" fill="#c6c5fe">util/oxi.js</text>
</g>
<!-- oxium.js&#45;&gt;util/oxi.js -->
<g id="edge6" class="edge">
<title>oxium.js&#45;&gt;util/oxi.js</title>
<path fill="none" stroke="#757575" d="M282,-69.43C309.1,-66.45 347.79,-62.18 377.57,-58.9"/>
<polygon fill="#757575" stroke="#757575" points="378.14,-62.36 387.7,-57.78 377.38,-55.4 378.14,-62.36"/>
</g>
<!-- util/resolveSequentially.js -->
<g id="node7" class="node">
<title>util/resolveSequentially.js</title>
<path fill="none" stroke="#cfffac" d="M500.68,-24.15C500.68,-24.15 344.51,-24.15 344.51,-24.15 340.47,-24.15 336.44,-20.12 336.44,-16.08 336.44,-16.08 336.44,-8.02 336.44,-8.02 336.44,-3.98 340.47,0.05 344.51,0.05 344.51,0.05 500.68,0.05 500.68,0.05 504.71,0.05 508.75,-3.98 508.75,-8.02 508.75,-8.02 508.75,-16.08 508.75,-16.08 508.75,-20.12 504.71,-24.15 500.68,-24.15"/>
<text text-anchor="middle" x="422.59" y="-8.9" font-family="Arial" font-size="14.00" fill="#cfffac">util/resolveSequentially.js</text>
</g>
<!-- oxium.js&#45;&gt;util/resolveSequentially.js -->
<g id="edge7" class="edge">
<title>oxium.js&#45;&gt;util/resolveSequentially.js</title>
<path fill="none" stroke="#757575" d="M280.06,-60.98C286.85,-58.17 293.97,-55.11 300.52,-52.05 316.91,-44.39 319.61,-39.49 336.52,-33.05 342.3,-30.85 348.4,-28.81 354.56,-26.95"/>
<polygon fill="#757575" stroke="#757575" points="355.61,-30.29 364.26,-24.17 353.68,-23.56 355.61,-30.29"/>
</g>
<!-- util/oxi.js&#45;&gt;util/mutable.js -->
<g id="edge9" class="edge">
<title>util/oxi.js&#45;&gt;util/mutable.js</title>
<path fill="none" stroke="#757575" d="M457.35,-62.15C479.43,-67.45 508.88,-74.51 534.83,-80.74"/>
<polygon fill="#757575" stroke="#757575" points="534.04,-84.15 544.58,-83.08 535.68,-77.34 534.04,-84.15"/>
</g>
<!-- util/debug.js -->
<g id="node8" class="node">
<title>util/debug.js</title>
<path fill="none" stroke="#cfffac" d="M632.62,-65.15C632.62,-65.15 558.31,-65.15 558.31,-65.15 554.28,-65.15 550.25,-61.12 550.25,-57.08 550.25,-57.08 550.25,-49.02 550.25,-49.02 550.25,-44.98 554.28,-40.95 558.31,-40.95 558.31,-40.95 632.62,-40.95 632.62,-40.95 636.65,-40.95 640.68,-44.98 640.68,-49.02 640.68,-49.02 640.68,-57.08 640.68,-57.08 640.68,-61.12 636.65,-65.15 632.62,-65.15"/>
<text text-anchor="middle" x="595.47" y="-49.9" font-family="Arial" font-size="14.00" fill="#cfffac">util/debug.js</text>
</g>
<!-- util/oxi.js&#45;&gt;util/debug.js -->
<g id="edge8" class="edge">
<title>util/oxi.js&#45;&gt;util/debug.js</title>
<path fill="none" stroke="#757575" d="M457.35,-53.85C480.9,-53.71 512.83,-53.53 539.95,-53.37"/>
<polygon fill="#757575" stroke="#757575" points="540.11,-56.87 550.09,-53.31 540.06,-49.87 540.11,-56.87"/>
</g>
</g>
</svg>
