<?xml version="1.0" encoding="UTF-8" standalone="no"?>
<!DOCTYPE svg PUBLIC "-//W3C//DTD SVG 1.1//EN"
 "http://www.w3.org/Graphics/SVG/1.1/DTD/svg11.dtd">
<!-- Generated by graphviz version 2.43.0 (0)
 -->
<!-- Title: G Pages: 1 -->
<svg width="1068pt" height="350pt"
 viewBox="0.00 0.00 1068.45 350.41" xmlns="http://www.w3.org/2000/svg" xmlns:xlink="http://www.w3.org/1999/xlink">
<g id="graph0" class="graph" transform="scale(1 1) rotate(0) translate(21.6 328.81)">
<title>G</title>
<polygon fill="#111111" stroke="transparent" points="-21.6,21.6 -21.6,-328.81 1046.85,-328.81 1046.85,21.6 -21.6,21.6"/>
<!-- app/applyFeatureTo.js -->
<g id="node1" class="node">
<title>app/applyFeatureTo.js</title>
<path fill="none" stroke="#c6c5fe" d="M424.63,-162.53C424.63,-162.53 287.26,-162.53 287.26,-162.53 283.23,-162.53 279.2,-158.5 279.2,-154.47 279.2,-154.47 279.2,-146.4 279.2,-146.4 279.2,-142.37 283.23,-138.33 287.26,-138.33 287.26,-138.33 424.63,-138.33 424.63,-138.33 428.67,-138.33 432.7,-142.37 432.7,-146.4 432.7,-146.4 432.7,-154.47 432.7,-154.47 432.7,-158.5 428.67,-162.53 424.63,-162.53"/>
<text text-anchor="middle" x="355.95" y="-147.28" font-family="Arial" font-size="14.00" fill="#c6c5fe">app/applyFeatureTo.js</text>
</g>
<!-- constants/index.js -->
<g id="node2" class="node">
<title>constants/index.js</title>
<path fill="none" stroke="#cfffac" d="M1017.32,-162.53C1017.32,-162.53 905.89,-162.53 905.89,-162.53 901.85,-162.53 897.82,-158.5 897.82,-154.47 897.82,-154.47 897.82,-146.4 897.82,-146.4 897.82,-142.37 901.85,-138.33 905.89,-138.33 905.89,-138.33 1017.32,-138.33 1017.32,-138.33 1021.35,-138.33 1025.39,-142.37 1025.39,-146.4 1025.39,-146.4 1025.39,-154.47 1025.39,-154.47 1025.39,-158.5 1021.35,-162.53 1017.32,-162.53"/>
<text text-anchor="middle" x="961.6" y="-147.28" font-family="Arial" font-size="14.00" fill="#cfffac">constants/index.js</text>
</g>
<!-- app/applyFeatureTo.js&#45;&gt;constants/index.js -->
<g id="edge1" class="edge">
<title>app/applyFeatureTo.js&#45;&gt;constants/index.js</title>
<path fill="none" stroke="#757575" d="M432.79,-150.43C549.75,-150.43 772.64,-150.43 887.76,-150.43"/>
<polygon fill="#757575" stroke="#757575" points="887.88,-153.93 897.88,-150.43 887.88,-146.93 887.88,-153.93"/>
</g>
<!-- lens/index.js -->
<g id="node3" class="node">
<title>lens/index.js</title>
<path fill="none" stroke="#c6c5fe" d="M578.71,-221.53C578.71,-221.53 501.76,-221.53 501.76,-221.53 497.73,-221.53 493.7,-217.5 493.7,-213.47 493.7,-213.47 493.7,-205.4 493.7,-205.4 493.7,-201.37 497.73,-197.33 501.76,-197.33 501.76,-197.33 578.71,-197.33 578.71,-197.33 582.74,-197.33 586.78,-201.37 586.78,-205.4 586.78,-205.4 586.78,-213.47 586.78,-213.47 586.78,-217.5 582.74,-221.53 578.71,-221.53"/>
<text text-anchor="middle" x="540.24" y="-206.28" font-family="Arial" font-size="14.00" fill="#c6c5fe">lens/index.js</text>
</g>
<!-- app/applyFeatureTo.js&#45;&gt;lens/index.js -->
<g id="edge2" class="edge">
<title>app/applyFeatureTo.js&#45;&gt;lens/index.js</title>
<path fill="none" stroke="#757575" d="M400.15,-162.51C414.78,-166.74 431.17,-171.63 446.05,-176.43 462.82,-181.85 481.13,-188.23 497.05,-193.93"/>
<polygon fill="#757575" stroke="#757575" points="496.02,-197.28 506.61,-197.37 498.39,-190.69 496.02,-197.28"/>
</g>
<!-- util/debug.js -->
<g id="node4" class="node">
<title>util/debug.js</title>
<path fill="none" stroke="#c6c5fe" d="M577.39,-80.53C577.39,-80.53 503.08,-80.53 503.08,-80.53 499.05,-80.53 495.02,-76.5 495.02,-72.47 495.02,-72.47 495.02,-64.4 495.02,-64.4 495.02,-60.37 499.05,-56.33 503.08,-56.33 503.08,-56.33 577.39,-56.33 577.39,-56.33 581.42,-56.33 585.45,-60.37 585.45,-64.4 585.45,-64.4 585.45,-72.47 585.45,-72.47 585.45,-76.5 581.42,-80.53 577.39,-80.53"/>
<text text-anchor="middle" x="540.24" y="-65.28" font-family="Arial" font-size="14.00" fill="#c6c5fe">util/debug.js</text>
</g>
<!-- app/applyFeatureTo.js&#45;&gt;util/debug.js -->
<g id="edge3" class="edge">
<title>app/applyFeatureTo.js&#45;&gt;util/debug.js</title>
<path fill="none" stroke="#757575" d="M380.14,-138.24C405,-125.38 445.81,-104.87 482.05,-89.43 486.21,-87.66 490.58,-85.89 494.97,-84.18"/>
<polygon fill="#757575" stroke="#757575" points="496.44,-87.36 504.54,-80.53 493.95,-80.82 496.44,-87.36"/>
</g>
<!-- util/pipeAsync.js -->
<g id="node5" class="node">
<title>util/pipeAsync.js</title>
<path fill="none" stroke="#cfffac" d="M590.55,-122.53C590.55,-122.53 489.92,-122.53 489.92,-122.53 485.89,-122.53 481.86,-118.5 481.86,-114.47 481.86,-114.47 481.86,-106.4 481.86,-106.4 481.86,-102.37 485.89,-98.33 489.92,-98.33 489.92,-98.33 590.55,-98.33 590.55,-98.33 594.58,-98.33 598.62,-102.37 598.62,-106.4 598.62,-106.4 598.62,-114.47 598.62,-114.47 598.62,-118.5 594.58,-122.53 590.55,-122.53"/>
<text text-anchor="middle" x="540.24" y="-107.28" font-family="Arial" font-size="14.00" fill="#cfffac">util/pipeAsync.js</text>
</g>
<!-- app/applyFeatureTo.js&#45;&gt;util/pipeAsync.js -->
<g id="edge4" class="edge">
<title>app/applyFeatureTo.js&#45;&gt;util/pipeAsync.js</title>
<path fill="none" stroke="#757575" d="M412.13,-138.32C431.77,-134.02 454.05,-129.13 474.41,-124.66"/>
<polygon fill="#757575" stroke="#757575" points="475.22,-128.06 484.24,-122.5 473.72,-121.23 475.22,-128.06"/>
</g>
<!-- lens/app.js -->
<g id="node11" class="node">
<title>lens/app.js</title>
<path fill="none" stroke="#c6c5fe" d="M709.26,-221.53C709.26,-221.53 642.53,-221.53 642.53,-221.53 638.49,-221.53 634.46,-217.5 634.46,-213.47 634.46,-213.47 634.46,-205.4 634.46,-205.4 634.46,-201.37 638.49,-197.33 642.53,-197.33 642.53,-197.33 709.26,-197.33 709.26,-197.33 713.29,-197.33 717.32,-201.37 717.32,-205.4 717.32,-205.4 717.32,-213.47 717.32,-213.47 717.32,-217.5 713.29,-221.53 709.26,-221.53"/>
<text text-anchor="middle" x="675.89" y="-206.28" font-family="Arial" font-size="14.00" fill="#c6c5fe">lens/app.js</text>
</g>
<!-- lens/index.js&#45;&gt;lens/app.js -->
<g id="edge22" class="edge">
<title>lens/index.js&#45;&gt;lens/app.js</title>
<path fill="none" stroke="#757575" d="M586.86,-209.43C598.91,-209.43 611.99,-209.43 624.29,-209.43"/>
<polygon fill="#757575" stroke="#757575" points="624.4,-212.93 634.4,-209.43 624.4,-205.93 624.4,-212.93"/>
</g>
<!-- lens/feature.js -->
<g id="node12" class="node">
<title>lens/feature.js</title>
<path fill="none" stroke="#c6c5fe" d="M851.25,-263.53C851.25,-263.53 764.07,-263.53 764.07,-263.53 760.03,-263.53 756,-259.5 756,-255.47 756,-255.47 756,-247.4 756,-247.4 756,-243.37 760.03,-239.33 764.07,-239.33 764.07,-239.33 851.25,-239.33 851.25,-239.33 855.29,-239.33 859.32,-243.37 859.32,-247.4 859.32,-247.4 859.32,-255.47 859.32,-255.47 859.32,-259.5 855.29,-263.53 851.25,-263.53"/>
<text text-anchor="middle" x="807.66" y="-248.28" font-family="Arial" font-size="14.00" fill="#c6c5fe">lens/feature.js</text>
</g>
<!-- lens/index.js&#45;&gt;lens/feature.js -->
<g id="edge23" class="edge">
<title>lens/index.js&#45;&gt;lens/feature.js</title>
<path fill="none" stroke="#757575" d="M587.03,-220.71C602.07,-224.16 618.9,-227.75 634.43,-230.43 671.28,-236.82 712.89,-241.95 745.99,-245.54"/>
<polygon fill="#757575" stroke="#757575" points="745.66,-249.02 755.97,-246.6 746.4,-242.06 745.66,-249.02"/>
</g>
<!-- util/debug.js&#45;&gt;constants/index.js -->
<g id="edge27" class="edge">
<title>util/debug.js&#45;&gt;constants/index.js</title>
<path fill="none" stroke="#757575" d="M585.54,-72.77C647.85,-79.43 764.64,-93.9 861.96,-117.43 881.04,-122.05 901.69,-128.69 919.15,-134.81"/>
<polygon fill="#757575" stroke="#757575" points="918.43,-138.27 929.02,-138.33 920.78,-131.67 918.43,-138.27"/>
</g>
<!-- app/oxium.js -->
<g id="node6" class="node">
<title>app/oxium.js</title>
<path fill="none" stroke="#c6c5fe" d="M202.12,-162.53C202.12,-162.53 124.07,-162.53 124.07,-162.53 120.04,-162.53 116,-158.5 116,-154.47 116,-154.47 116,-146.4 116,-146.4 116,-142.37 120.04,-138.33 124.07,-138.33 124.07,-138.33 202.12,-138.33 202.12,-138.33 206.16,-138.33 210.19,-142.37 210.19,-146.4 210.19,-146.4 210.19,-154.47 210.19,-154.47 210.19,-158.5 206.16,-162.53 202.12,-162.53"/>
<text text-anchor="middle" x="163.1" y="-147.28" font-family="Arial" font-size="14.00" fill="#c6c5fe">app/oxium.js</text>
</g>
<!-- app/oxium.js&#45;&gt;app/applyFeatureTo.js -->
<g id="edge5" class="edge">
<title>app/oxium.js&#45;&gt;app/applyFeatureTo.js</title>
<path fill="none" stroke="#757575" d="M210.3,-150.43C227.94,-150.43 248.68,-150.43 268.86,-150.43"/>
<polygon fill="#757575" stroke="#757575" points="269.03,-153.93 279.03,-150.43 269.03,-146.93 269.03,-153.93"/>
</g>
<!-- app/oxium.js&#45;&gt;lens/index.js -->
<g id="edge7" class="edge">
<title>app/oxium.js&#45;&gt;lens/index.js</title>
<path fill="none" stroke="#757575" d="M210.32,-160.64C227.69,-164.3 247.63,-168.29 265.85,-171.43 340.98,-184.39 428.32,-195.92 483.67,-202.79"/>
<polygon fill="#757575" stroke="#757575" points="483.27,-206.27 493.62,-204.02 484.13,-199.32 483.27,-206.27"/>
</g>
<!-- app/oxium.js&#45;&gt;util/debug.js -->
<g id="edge8" class="edge">
<title>app/oxium.js&#45;&gt;util/debug.js</title>
<path fill="none" stroke="#757575" d="M189.45,-138.28C209.7,-129.05 239.02,-116.74 265.85,-109.43 340.17,-89.19 428.77,-78.21 484.52,-72.84"/>
<polygon fill="#757575" stroke="#757575" points="484.91,-76.32 494.54,-71.9 484.26,-69.35 484.91,-76.32"/>
</g>
<!-- app/oxium.js&#45;&gt;util/pipeAsync.js -->
<g id="edge9" class="edge">
<title>app/oxium.js&#45;&gt;util/pipeAsync.js</title>
<path fill="none" stroke="#757575" d="M210.22,-139.55C227.57,-135.82 247.53,-131.95 265.85,-129.43 335.74,-119.84 416.38,-114.98 471.87,-112.6"/>
<polygon fill="#757575" stroke="#757575" points="472.09,-116.09 481.93,-112.18 471.8,-109.1 472.09,-116.09"/>
</g>
<!-- app/replaceFeaturesIn.js -->
<g id="node7" class="node">
<title>app/replaceFeaturesIn.js</title>
<path fill="none" stroke="#c6c5fe" d="M432.97,-242.53C432.97,-242.53 278.92,-242.53 278.92,-242.53 274.89,-242.53 270.86,-238.5 270.86,-234.47 270.86,-234.47 270.86,-226.4 270.86,-226.4 270.86,-222.37 274.89,-218.33 278.92,-218.33 278.92,-218.33 432.97,-218.33 432.97,-218.33 437,-218.33 441.04,-222.37 441.04,-226.4 441.04,-226.4 441.04,-234.47 441.04,-234.47 441.04,-238.5 437,-242.53 432.97,-242.53"/>
<text text-anchor="middle" x="355.95" y="-227.28" font-family="Arial" font-size="14.00" fill="#c6c5fe">app/replaceFeaturesIn.js</text>
</g>
<!-- app/oxium.js&#45;&gt;app/replaceFeaturesIn.js -->
<g id="edge6" class="edge">
<title>app/oxium.js&#45;&gt;app/replaceFeaturesIn.js</title>
<path fill="none" stroke="#757575" d="M184.16,-162.66C204.27,-174.53 236.39,-192.46 265.85,-204.43 275.69,-208.43 286.37,-212.1 296.81,-215.33"/>
<polygon fill="#757575" stroke="#757575" points="296.12,-218.78 306.71,-218.3 298.13,-212.07 296.12,-218.78"/>
</g>
<!-- app/replaceFeaturesIn.js&#45;&gt;constants/index.js -->
<g id="edge10" class="edge">
<title>app/replaceFeaturesIn.js&#45;&gt;constants/index.js</title>
<path fill="none" stroke="#757575" d="M385.85,-242.51C466.09,-274.09 696.62,-351.37 861.96,-272.43 905.5,-251.65 936.01,-201.23 950.68,-172.13"/>
<polygon fill="#757575" stroke="#757575" points="953.99,-173.33 955.2,-162.8 947.69,-170.27 953.99,-173.33"/>
</g>
<!-- app/replaceFeaturesIn.js&#45;&gt;lens/index.js -->
<g id="edge11" class="edge">
<title>app/replaceFeaturesIn.js&#45;&gt;lens/index.js</title>
<path fill="none" stroke="#757575" d="M441.16,-220.73C455.58,-219.07 470.23,-217.38 483.66,-215.84"/>
<polygon fill="#757575" stroke="#757575" points="484.14,-219.3 493.67,-214.68 483.34,-212.35 484.14,-219.3"/>
</g>
<!-- decorators/deferHandler.js -->
<g id="node8" class="node">
<title>decorators/deferHandler.js</title>
<path fill="none" stroke="#c6c5fe" d="M438.08,-44.53C438.08,-44.53 273.81,-44.53 273.81,-44.53 269.78,-44.53 265.75,-40.5 265.75,-36.47 265.75,-36.47 265.75,-28.4 265.75,-28.4 265.75,-24.37 269.78,-20.33 273.81,-20.33 273.81,-20.33 438.08,-20.33 438.08,-20.33 442.11,-20.33 446.15,-24.37 446.15,-28.4 446.15,-28.4 446.15,-36.47 446.15,-36.47 446.15,-40.5 442.11,-44.53 438.08,-44.53"/>
<text text-anchor="middle" x="355.95" y="-29.28" font-family="Arial" font-size="14.00" fill="#c6c5fe">decorators/deferHandler.js</text>
</g>
<!-- decorators/deferHandler.js&#45;&gt;constants/index.js -->
<g id="edge12" class="edge">
<title>decorators/deferHandler.js&#45;&gt;constants/index.js</title>
<path fill="none" stroke="#757575" d="M401.74,-20.35C425.42,-14.58 455.09,-8.31 482.05,-5.43 533.48,0.05 547.34,2.69 598.43,-5.43 720.1,-24.79 749.83,-40.38 861.96,-91.43 887.68,-103.14 915.12,-119.94 934.51,-132.63"/>
<polygon fill="#757575" stroke="#757575" points="932.81,-135.7 943.08,-138.3 936.68,-129.86 932.81,-135.7"/>
</g>
<!-- decorators/deferHandler.js&#45;&gt;lens/index.js -->
<g id="edge13" class="edge">
<title>decorators/deferHandler.js&#45;&gt;lens/index.js</title>
<path fill="none" stroke="#757575" d="M369.48,-44.6C400.57,-74.79 481.46,-153.33 519.24,-190.02"/>
<polygon fill="#757575" stroke="#757575" points="517.01,-192.73 526.62,-197.18 521.88,-187.71 517.01,-192.73"/>
</g>
<!-- decorators/deferHandler.js&#45;&gt;util/debug.js -->
<g id="edge14" class="edge">
<title>decorators/deferHandler.js&#45;&gt;util/debug.js</title>
<path fill="none" stroke="#757575" d="M418.15,-44.52C439.75,-48.79 463.88,-53.55 484.87,-57.7"/>
<polygon fill="#757575" stroke="#757575" points="484.41,-61.17 494.9,-59.68 485.77,-54.31 484.41,-61.17"/>
</g>
<!-- decorators/deferHandler.js&#45;&gt;util/pipeAsync.js -->
<g id="edge16" class="edge">
<title>decorators/deferHandler.js&#45;&gt;util/pipeAsync.js</title>
<path fill="none" stroke="#757575" d="M382.1,-44.57C407.19,-56.52 446.94,-75.02 482.05,-89.43 486.29,-91.18 490.73,-92.93 495.19,-94.64"/>
<polygon fill="#757575" stroke="#757575" points="494.31,-98.05 504.9,-98.3 496.78,-91.5 494.31,-98.05"/>
</g>
<!-- util/invariant.js -->
<g id="node9" class="node">
<title>util/invariant.js</title>
<path fill="none" stroke="#cfffac" d="M584.37,-38.53C584.37,-38.53 496.1,-38.53 496.1,-38.53 492.07,-38.53 488.03,-34.5 488.03,-30.47 488.03,-30.47 488.03,-22.4 488.03,-22.4 488.03,-18.37 492.07,-14.33 496.1,-14.33 496.1,-14.33 584.37,-14.33 584.37,-14.33 588.41,-14.33 592.44,-18.37 592.44,-22.4 592.44,-22.4 592.44,-30.47 592.44,-30.47 592.44,-34.5 588.41,-38.53 584.37,-38.53"/>
<text text-anchor="middle" x="540.24" y="-23.28" font-family="Arial" font-size="14.00" fill="#cfffac">util/invariant.js</text>
</g>
<!-- decorators/deferHandler.js&#45;&gt;util/invariant.js -->
<g id="edge15" class="edge">
<title>decorators/deferHandler.js&#45;&gt;util/invariant.js</title>
<path fill="none" stroke="#757575" d="M446.22,-29.5C456.8,-29.15 467.41,-28.8 477.49,-28.47"/>
<polygon fill="#757575" stroke="#757575" points="477.89,-31.95 487.77,-28.13 477.66,-24.96 477.89,-31.95"/>
</g>
<!-- decorators/index.js -->
<g id="node10" class="node">
<title>decorators/index.js</title>
<path fill="none" stroke="#c6c5fe" d="M221.53,-82.53C221.53,-82.53 104.66,-82.53 104.66,-82.53 100.63,-82.53 96.59,-78.5 96.59,-74.47 96.59,-74.47 96.59,-66.4 96.59,-66.4 96.59,-62.37 100.63,-58.33 104.66,-58.33 104.66,-58.33 221.53,-58.33 221.53,-58.33 225.57,-58.33 229.6,-62.37 229.6,-66.4 229.6,-66.4 229.6,-74.47 229.6,-74.47 229.6,-78.5 225.57,-82.53 221.53,-82.53"/>
<text text-anchor="middle" x="163.1" y="-67.28" font-family="Arial" font-size="14.00" fill="#c6c5fe">decorators/index.js</text>
</g>
<!-- decorators/index.js&#45;&gt;decorators/deferHandler.js -->
<g id="edge17" class="edge">
<title>decorators/index.js&#45;&gt;decorators/deferHandler.js</title>
<path fill="none" stroke="#757575" d="M224.74,-58.36C243.61,-54.6 264.58,-50.43 284.08,-46.54"/>
<polygon fill="#757575" stroke="#757575" points="285,-49.93 294.13,-44.54 283.64,-43.06 285,-49.93"/>
</g>
<!-- lens/app.js&#45;&gt;constants/index.js -->
<g id="edge18" class="edge">
<title>lens/app.js&#45;&gt;constants/index.js</title>
<path fill="none" stroke="#757575" d="M717.6,-197.55C729.11,-194.38 741.68,-191.1 753.36,-188.43 797.74,-178.29 847.95,-169.03 887.83,-162.19"/>
<polygon fill="#757575" stroke="#757575" points="888.47,-165.63 897.74,-160.5 887.29,-158.73 888.47,-165.63"/>
</g>
<!-- lens/app.js&#45;&gt;lens/feature.js -->
<g id="edge19" class="edge">
<title>lens/app.js&#45;&gt;lens/feature.js</title>
<path fill="none" stroke="#757575" d="M714.43,-221.58C728.55,-226.15 744.79,-231.41 759.67,-236.22"/>
<polygon fill="#757575" stroke="#757575" points="758.62,-239.56 769.21,-239.31 760.77,-232.9 758.62,-239.56"/>
</g>
<!-- util/byIdLens.js -->
<g id="node13" class="node">
<title>util/byIdLens.js</title>
<path fill="none" stroke="#cfffac" d="M853.7,-221.53C853.7,-221.53 761.62,-221.53 761.62,-221.53 757.59,-221.53 753.55,-217.5 753.55,-213.47 753.55,-213.47 753.55,-205.4 753.55,-205.4 753.55,-201.37 757.59,-197.33 761.62,-197.33 761.62,-197.33 853.7,-197.33 853.7,-197.33 857.73,-197.33 861.77,-201.37 861.77,-205.4 861.77,-205.4 861.77,-213.47 861.77,-213.47 861.77,-217.5 857.73,-221.53 853.7,-221.53"/>
<text text-anchor="middle" x="807.66" y="-206.28" font-family="Arial" font-size="14.00" fill="#cfffac">util/byIdLens.js</text>
</g>
<!-- lens/app.js&#45;&gt;util/byIdLens.js -->
<g id="edge20" class="edge">
<title>lens/app.js&#45;&gt;util/byIdLens.js</title>
<path fill="none" stroke="#757575" d="M717.59,-209.43C725.72,-209.43 734.43,-209.43 743.1,-209.43"/>
<polygon fill="#757575" stroke="#757575" points="743.24,-212.93 753.24,-209.43 743.24,-205.93 743.24,-212.93"/>
</g>
<!-- lens/feature.js&#45;&gt;constants/index.js -->
<g id="edge21" class="edge">
<title>lens/feature.js&#45;&gt;constants/index.js</title>
<path fill="none" stroke="#757575" d="M843.79,-239.37C850,-236.74 856.29,-233.74 861.96,-230.43 891.62,-213.12 921.7,-187.26 940.72,-169.67"/>
<polygon fill="#757575" stroke="#757575" points="943.26,-172.08 948.15,-162.68 938.47,-166.97 943.26,-172.08"/>
</g>
<!-- main.js -->
<g id="node14" class="node">
<title>main.js</title>
<path fill="none" stroke="#c6c5fe" d="M52.45,-162.53C52.45,-162.53 7.89,-162.53 7.89,-162.53 3.86,-162.53 -0.17,-158.5 -0.17,-154.47 -0.17,-154.47 -0.17,-146.4 -0.17,-146.4 -0.17,-142.37 3.86,-138.33 7.89,-138.33 7.89,-138.33 52.45,-138.33 52.45,-138.33 56.49,-138.33 60.52,-142.37 60.52,-146.4 60.52,-146.4 60.52,-154.47 60.52,-154.47 60.52,-158.5 56.49,-162.53 52.45,-162.53"/>
<text text-anchor="middle" x="30.17" y="-147.28" font-family="Arial" font-size="14.00" fill="#c6c5fe">main.js</text>
</g>
<!-- main.js&#45;&gt;lens/index.js -->
<g id="edge26" class="edge">
<title>main.js&#45;&gt;lens/index.js</title>
<path fill="none" stroke="#757575" d="M51.58,-162.63C91.2,-185.52 182,-234.16 265.85,-251.43 344.29,-267.6 367.75,-268.26 446.05,-251.43 468.44,-246.62 491.95,-235.98 509.75,-226.62"/>
<polygon fill="#757575" stroke="#757575" points="511.89,-229.44 519.01,-221.59 508.55,-223.28 511.89,-229.44"/>
</g>
<!-- main.js&#45;&gt;app/oxium.js -->
<g id="edge24" class="edge">
<title>main.js&#45;&gt;app/oxium.js</title>
<path fill="none" stroke="#757575" d="M60.55,-150.43C73.91,-150.43 90.19,-150.43 105.76,-150.43"/>
<polygon fill="#757575" stroke="#757575" points="105.85,-153.93 115.85,-150.43 105.85,-146.93 105.85,-153.93"/>
</g>
<!-- main.js&#45;&gt;decorators/index.js -->
<g id="edge25" class="edge">
<title>main.js&#45;&gt;decorators/index.js</title>
<path fill="none" stroke="#757575" d="M51.06,-138.28C72.97,-124.89 108.42,-103.23 133.36,-87.99"/>
<polygon fill="#757575" stroke="#757575" points="135.32,-90.9 142.02,-82.7 131.67,-84.93 135.32,-90.9"/>
</g>
</g>
</svg>
