<?xml version="1.0" encoding="UTF-8" standalone="no"?>
<!DOCTYPE svg PUBLIC "-//W3C//DTD SVG 1.1//EN"
 "http://www.w3.org/Graphics/SVG/1.1/DTD/svg11.dtd">
<!-- Generated by graphviz version 2.43.0 (0)
 -->
<!-- Title: G Pages: 1 -->
<svg width="550pt" height="126pt"
 viewBox="0.00 0.00 549.63 126.30" xmlns="http://www.w3.org/2000/svg" xmlns:xlink="http://www.w3.org/1999/xlink">
<g id="graph0" class="graph" transform="scale(1 1) rotate(0) translate(21.6 104.7)">
<title>G</title>
<polygon fill="#111111" stroke="transparent" points="-21.6,21.6 -21.6,-104.7 528.03,-104.7 528.03,21.6 -21.6,21.6"/>
<!-- index.js -->
<g id="node1" class="node">
<title>index.js</title>
<path fill="none" stroke="#c6c5fe" d="M55.64,-24.15C55.64,-24.15 7.83,-24.15 7.83,-24.15 3.8,-24.15 -0.24,-20.12 -0.24,-16.08 -0.24,-16.08 -0.24,-8.02 -0.24,-8.02 -0.24,-3.98 3.8,0.05 7.83,0.05 7.83,0.05 55.64,0.05 55.64,0.05 59.67,0.05 63.7,-3.98 63.7,-8.02 63.7,-8.02 63.7,-16.08 63.7,-16.08 63.7,-20.12 59.67,-24.15 55.64,-24.15"/>
<text text-anchor="middle" x="31.73" y="-8.9" font-family="Arial" font-size="14.00" fill="#c6c5fe">index.js</text>
</g>
<!-- main.js -->
<g id="node2" class="node">
<title>main.js</title>
<path fill="none" stroke="#c6c5fe" d="M151.92,-24.15C151.92,-24.15 107.36,-24.15 107.36,-24.15 103.33,-24.15 99.3,-20.12 99.3,-16.08 99.3,-16.08 99.3,-8.02 99.3,-8.02 99.3,-3.98 103.33,0.05 107.36,0.05 107.36,0.05 151.92,0.05 151.92,0.05 155.95,0.05 159.99,-3.98 159.99,-8.02 159.99,-8.02 159.99,-16.08 159.99,-16.08 159.99,-20.12 155.95,-24.15 151.92,-24.15"/>
<text text-anchor="middle" x="129.64" y="-8.9" font-family="Arial" font-size="14.00" fill="#c6c5fe">main.js</text>
</g>
<!-- index.js&#45;&gt;main.js -->
<g id="edge1" class="edge">
<title>index.js&#45;&gt;main.js</title>
<path fill="none" stroke="#757575" d="M63.61,-12.05C71.78,-12.05 80.72,-12.05 89.28,-12.05"/>
<polygon fill="#757575" stroke="#757575" points="89.46,-15.55 99.46,-12.05 89.46,-8.55 89.46,-15.55"/>
</g>
<!-- oxium.js -->
<g id="node3" class="node">
<title>oxium.js</title>
<path fill="none" stroke="#c6c5fe" d="M255.27,-44.15C255.27,-44.15 203.71,-44.15 203.71,-44.15 199.67,-44.15 195.64,-40.12 195.64,-36.08 195.64,-36.08 195.64,-28.02 195.64,-28.02 195.64,-23.98 199.67,-19.95 203.71,-19.95 203.71,-19.95 255.27,-19.95 255.27,-19.95 259.3,-19.95 263.33,-23.98 263.33,-28.02 263.33,-28.02 263.33,-36.08 263.33,-36.08 263.33,-40.12 259.3,-44.15 255.27,-44.15"/>
<text text-anchor="middle" x="229.49" y="-28.9" font-family="Arial" font-size="14.00" fill="#c6c5fe">oxium.js</text>
</g>
<!-- main.js&#45;&gt;oxium.js -->
<g id="edge2" class="edge">
<title>main.js&#45;&gt;oxium.js</title>
<path fill="none" stroke="#757575" d="M160,-18.05C168.09,-19.7 177.04,-21.53 185.72,-23.31"/>
<polygon fill="#757575" stroke="#757575" points="185.23,-26.78 195.73,-25.35 186.63,-19.92 185.23,-26.78"/>
</g>
<!-- util/mutable.js -->
<g id="node4" class="node">
<title>util/mutable.js</title>
<path fill="none" stroke="#cfffac" d="M498.16,-41.15C498.16,-41.15 413.11,-41.15 413.11,-41.15 409.08,-41.15 405.04,-37.12 405.04,-33.08 405.04,-33.08 405.04,-25.02 405.04,-25.02 405.04,-20.98 409.08,-16.95 413.11,-16.95 413.11,-16.95 498.16,-16.95 498.16,-16.95 502.2,-16.95 506.23,-20.98 506.23,-25.02 506.23,-25.02 506.23,-33.08 506.23,-33.08 506.23,-37.12 502.2,-41.15 498.16,-41.15"/>
<text text-anchor="middle" x="455.64" y="-25.9" font-family="Arial" font-size="14.00" fill="#cfffac">util/mutable.js</text>
</g>
<!-- main.js&#45;&gt;util/mutable.js -->
<g id="edge3" class="edge">
<title>main.js&#45;&gt;util/mutable.js</title>
<path fill="none" stroke="#757575" d="M159.84,-11.51C171.08,-11.32 184.05,-11.14 195.81,-11.05 225.74,-10.82 233.26,-9.65 263.16,-11.05 307.21,-13.12 356.78,-17.84 394.44,-21.93"/>
<polygon fill="#757575" stroke="#757575" points="394.41,-25.45 404.74,-23.07 395.18,-18.49 394.41,-25.45"/>
</g>
<!-- oxium.js&#45;&gt;util/mutable.js -->
<g id="edge4" class="edge">
<title>oxium.js&#45;&gt;util/mutable.js</title>
<path fill="none" stroke="#757575" d="M263.56,-31.61C297.99,-31.15 352.65,-30.41 394.7,-29.85"/>
<polygon fill="#757575" stroke="#757575" points="394.88,-33.35 404.83,-29.72 394.78,-26.35 394.88,-33.35"/>
</g>
<!-- util/oxi.js -->
<g id="node5" class="node">
<title>util/oxi.js</title>
<path fill="none" stroke="#c6c5fe" d="M360.62,-82.15C360.62,-82.15 307.38,-82.15 307.38,-82.15 303.35,-82.15 299.32,-78.12 299.32,-74.08 299.32,-74.08 299.32,-66.02 299.32,-66.02 299.32,-61.98 303.35,-57.95 307.38,-57.95 307.38,-57.95 360.62,-57.95 360.62,-57.95 364.65,-57.95 368.68,-61.98 368.68,-66.02 368.68,-66.02 368.68,-74.08 368.68,-74.08 368.68,-78.12 364.65,-82.15 360.62,-82.15"/>
<text text-anchor="middle" x="334" y="-66.9" font-family="Arial" font-size="14.00" fill="#c6c5fe">util/oxi.js</text>
</g>
<!-- oxium.js&#45;&gt;util/oxi.js -->
<g id="edge5" class="edge">
<title>oxium.js&#45;&gt;util/oxi.js</title>
<path fill="none" stroke="#757575" d="M263.2,-44.18C271.99,-47.43 281.61,-51 290.83,-54.42"/>
<polygon fill="#757575" stroke="#757575" points="289.65,-57.71 300.24,-57.91 292.08,-51.15 289.65,-57.71"/>
</g>
<!-- util/oxi.js&#45;&gt;util/mutable.js -->
<g id="edge7" class="edge">
<title>util/oxi.js&#45;&gt;util/mutable.js</title>
<path fill="none" stroke="#757575" d="M368.96,-58.41C381.64,-54.07 396.23,-49.07 409.74,-44.44"/>
<polygon fill="#757575" stroke="#757575" points="411.01,-47.7 419.34,-41.15 408.74,-41.08 411.01,-47.7"/>
</g>
<!-- util/debug.js -->
<g id="node6" class="node">
<title>util/debug.js</title>
<path fill="none" stroke="#cfffac" d="M492.79,-83.15C492.79,-83.15 418.49,-83.15 418.49,-83.15 414.45,-83.15 410.42,-79.12 410.42,-75.08 410.42,-75.08 410.42,-67.02 410.42,-67.02 410.42,-62.98 414.45,-58.95 418.49,-58.95 418.49,-58.95 492.79,-58.95 492.79,-58.95 496.82,-58.95 500.85,-62.98 500.85,-67.02 500.85,-67.02 500.85,-75.08 500.85,-75.08 500.85,-79.12 496.82,-83.15 492.79,-83.15"/>
<text text-anchor="middle" x="455.64" y="-67.9" font-family="Arial" font-size="14.00" fill="#cfffac">util/debug.js</text>
</g>
<!-- util/oxi.js&#45;&gt;util/debug.js -->
<g id="edge6" class="edge">
<title>util/oxi.js&#45;&gt;util/debug.js</title>
<path fill="none" stroke="#757575" d="M368.96,-70.33C378.7,-70.41 389.57,-70.51 400.21,-70.59"/>
<polygon fill="#757575" stroke="#757575" points="400.27,-74.09 410.3,-70.68 400.33,-67.1 400.27,-74.09"/>
</g>
</g>
</svg>
