<?xml version="1.0" encoding="UTF-8" standalone="no"?>
<!DOCTYPE svg PUBLIC "-//W3C//DTD SVG 1.1//EN"
 "http://www.w3.org/Graphics/SVG/1.1/DTD/svg11.dtd">
<!-- Generated by graphviz version 2.43.0 (0)
 -->
<!-- Title: G Pages: 1 -->
<svg width="787pt" height="303pt"
 viewBox="0.00 0.00 786.86 303.30" xmlns="http://www.w3.org/2000/svg" xmlns:xlink="http://www.w3.org/1999/xlink">
<g id="graph0" class="graph" transform="scale(1 1) rotate(0) translate(21.6 281.7)">
<title>G</title>
<polygon fill="#111111" stroke="transparent" points="-21.6,21.6 -21.6,-281.7 765.26,-281.7 765.26,21.6 -21.6,21.6"/>
<!-- accessors/arg.js -->
<g id="node1" class="node">
<title>accessors/arg.js</title>
<path fill="none" stroke="#c6c5fe" d="M445.67,-260.15C445.67,-260.15 344.51,-260.15 344.51,-260.15 340.48,-260.15 336.44,-256.12 336.44,-252.08 336.44,-252.08 336.44,-244.02 336.44,-244.02 336.44,-239.98 340.48,-235.95 344.51,-235.95 344.51,-235.95 445.67,-235.95 445.67,-235.95 449.7,-235.95 453.73,-239.98 453.73,-244.02 453.73,-244.02 453.73,-252.08 453.73,-252.08 453.73,-256.12 449.7,-260.15 445.67,-260.15"/>
<text text-anchor="middle" x="395.09" y="-244.9" font-family="Arial" font-size="14.00" fill="#c6c5fe">accessors/arg.js</text>
</g>
<!-- constants/index.js -->
<g id="node2" class="node">
<title>constants/index.js</title>
<path fill="none" stroke="#cfffac" d="M735.74,-201.15C735.74,-201.15 624.3,-201.15 624.3,-201.15 620.27,-201.15 616.24,-197.12 616.24,-193.08 616.24,-193.08 616.24,-185.02 616.24,-185.02 616.24,-180.98 620.27,-176.95 624.3,-176.95 624.3,-176.95 735.74,-176.95 735.74,-176.95 739.77,-176.95 743.8,-180.98 743.8,-185.02 743.8,-185.02 743.8,-193.08 743.8,-193.08 743.8,-197.12 739.77,-201.15 735.74,-201.15"/>
<text text-anchor="middle" x="680.02" y="-185.9" font-family="Arial" font-size="14.00" fill="#cfffac">constants/index.js</text>
</g>
<!-- accessors/arg.js&#45;&gt;constants/index.js -->
<g id="edge1" class="edge">
<title>accessors/arg.js&#45;&gt;constants/index.js</title>
<path fill="none" stroke="#757575" d="M453.87,-242.64C490.44,-238.54 538.55,-231.91 580.38,-222.05 599.48,-217.55 620.14,-210.92 637.59,-204.78"/>
<polygon fill="#757575" stroke="#757575" points="639.23,-207.92 647.46,-201.25 636.87,-201.33 639.23,-207.92"/>
</g>
<!-- index.js -->
<g id="node3" class="node">
<title>index.js</title>
<path fill="none" stroke="#c6c5fe" d="M55.64,-161.15C55.64,-161.15 7.83,-161.15 7.83,-161.15 3.8,-161.15 -0.24,-157.12 -0.24,-153.08 -0.24,-153.08 -0.24,-145.02 -0.24,-145.02 -0.24,-140.98 3.8,-136.95 7.83,-136.95 7.83,-136.95 55.64,-136.95 55.64,-136.95 59.67,-136.95 63.7,-140.98 63.7,-145.02 63.7,-145.02 63.7,-153.08 63.7,-153.08 63.7,-157.12 59.67,-161.15 55.64,-161.15"/>
<text text-anchor="middle" x="31.73" y="-145.9" font-family="Arial" font-size="14.00" fill="#c6c5fe">index.js</text>
</g>
<!-- main.js -->
<g id="node4" class="node">
<title>main.js</title>
<path fill="none" stroke="#c6c5fe" d="M151.92,-161.15C151.92,-161.15 107.36,-161.15 107.36,-161.15 103.33,-161.15 99.3,-157.12 99.3,-153.08 99.3,-153.08 99.3,-145.02 99.3,-145.02 99.3,-140.98 103.33,-136.95 107.36,-136.95 107.36,-136.95 151.92,-136.95 151.92,-136.95 155.95,-136.95 159.99,-140.98 159.99,-145.02 159.99,-145.02 159.99,-153.08 159.99,-153.08 159.99,-157.12 155.95,-161.15 151.92,-161.15"/>
<text text-anchor="middle" x="129.64" y="-145.9" font-family="Arial" font-size="14.00" fill="#c6c5fe">main.js</text>
</g>
<!-- index.js&#45;&gt;main.js -->
<g id="edge2" class="edge">
<title>index.js&#45;&gt;main.js</title>
<path fill="none" stroke="#757575" d="M63.61,-149.05C71.78,-149.05 80.72,-149.05 89.28,-149.05"/>
<polygon fill="#757575" stroke="#757575" points="89.46,-152.55 99.46,-149.05 89.46,-145.55 89.46,-152.55"/>
</g>
<!-- main.js&#45;&gt;accessors/arg.js -->
<g id="edge3" class="edge">
<title>main.js&#45;&gt;accessors/arg.js</title>
<path fill="none" stroke="#757575" d="M137.66,-161.31C148.01,-178.15 169.08,-207.92 195.81,-222.05 235.63,-243.09 286,-249.48 326,-250.67"/>
<polygon fill="#757575" stroke="#757575" points="326.14,-254.18 336.2,-250.87 326.27,-247.18 326.14,-254.18"/>
</g>
<!-- main.js&#45;&gt;constants/index.js -->
<g id="edge4" class="edge">
<title>main.js&#45;&gt;constants/index.js</title>
<path fill="none" stroke="#757575" d="M160.09,-160.22C171.14,-163.96 183.91,-167.76 195.81,-170.05 363.89,-202.34 409.23,-190.92 580.38,-190.05 588.69,-190.01 597.39,-189.95 606.04,-189.87"/>
<polygon fill="#757575" stroke="#757575" points="606.17,-193.37 616.14,-189.78 606.11,-186.37 606.17,-193.37"/>
</g>
<!-- oxium.js -->
<g id="node5" class="node">
<title>oxium.js</title>
<path fill="none" stroke="#c6c5fe" d="M273.94,-161.15C273.94,-161.15 222.39,-161.15 222.39,-161.15 218.35,-161.15 214.32,-157.12 214.32,-153.08 214.32,-153.08 214.32,-145.02 214.32,-145.02 214.32,-140.98 218.35,-136.95 222.39,-136.95 222.39,-136.95 273.94,-136.95 273.94,-136.95 277.98,-136.95 282.01,-140.98 282.01,-145.02 282.01,-145.02 282.01,-153.08 282.01,-153.08 282.01,-157.12 277.98,-161.15 273.94,-161.15"/>
<text text-anchor="middle" x="248.17" y="-145.9" font-family="Arial" font-size="14.00" fill="#c6c5fe">oxium.js</text>
</g>
<!-- main.js&#45;&gt;oxium.js -->
<g id="edge5" class="edge">
<title>main.js&#45;&gt;oxium.js</title>
<path fill="none" stroke="#757575" d="M160.05,-149.05C173.39,-149.05 189.44,-149.05 204.11,-149.05"/>
<polygon fill="#757575" stroke="#757575" points="204.48,-152.55 214.48,-149.05 204.48,-145.55 204.48,-152.55"/>
</g>
<!-- util/invariant.js -->
<g id="node6" class="node">
<title>util/invariant.js</title>
<path fill="none" stroke="#cfffac" d="M292.3,-24.15C292.3,-24.15 204.03,-24.15 204.03,-24.15 199.99,-24.15 195.96,-20.12 195.96,-16.08 195.96,-16.08 195.96,-8.02 195.96,-8.02 195.96,-3.98 199.99,0.05 204.03,0.05 204.03,0.05 292.3,0.05 292.3,0.05 296.34,0.05 300.37,-3.98 300.37,-8.02 300.37,-8.02 300.37,-16.08 300.37,-16.08 300.37,-20.12 296.34,-24.15 292.3,-24.15"/>
<text text-anchor="middle" x="248.17" y="-8.9" font-family="Arial" font-size="14.00" fill="#cfffac">util/invariant.js</text>
</g>
<!-- main.js&#45;&gt;util/invariant.js -->
<g id="edge6" class="edge">
<title>main.js&#45;&gt;util/invariant.js</title>
<path fill="none" stroke="#757575" d="M135.1,-136.87C143.74,-114.68 164.71,-67.28 195.81,-38.05 199.32,-34.76 203.31,-31.79 207.5,-29.13"/>
<polygon fill="#757575" stroke="#757575" points="209.31,-32.12 216.25,-24.12 205.84,-26.05 209.31,-32.12"/>
</g>
<!-- util/lens.js -->
<g id="node7" class="node">
<title>util/lens.js</title>
<path fill="none" stroke="#cfffac" d="M565.92,-100.15C565.92,-100.15 504.12,-100.15 504.12,-100.15 500.08,-100.15 496.05,-96.12 496.05,-92.08 496.05,-92.08 496.05,-84.02 496.05,-84.02 496.05,-79.98 500.08,-75.95 504.12,-75.95 504.12,-75.95 565.92,-75.95 565.92,-75.95 569.96,-75.95 573.99,-79.98 573.99,-84.02 573.99,-84.02 573.99,-92.08 573.99,-92.08 573.99,-96.12 569.96,-100.15 565.92,-100.15"/>
<text text-anchor="middle" x="535.02" y="-84.9" font-family="Arial" font-size="14.00" fill="#cfffac">util/lens.js</text>
</g>
<!-- main.js&#45;&gt;util/lens.js -->
<g id="edge7" class="edge">
<title>main.js&#45;&gt;util/lens.js</title>
<path fill="none" stroke="#757575" d="M160.11,-139.36C171.27,-135.74 184.11,-131.64 195.81,-128.05 258.09,-108.95 272.03,-96.25 336.52,-87.05 388.06,-79.69 401.6,-86.73 453.66,-87.05 464.02,-87.11 475.13,-87.22 485.68,-87.35"/>
<polygon fill="#757575" stroke="#757575" points="485.96,-90.85 496,-87.48 486.05,-83.85 485.96,-90.85"/>
</g>
<!-- oxium.js&#45;&gt;accessors/arg.js -->
<g id="edge8" class="edge">
<title>oxium.js&#45;&gt;accessors/arg.js</title>
<path fill="none" stroke="#757575" d="M266.94,-161.19C292.14,-178.41 338.46,-210.05 367.69,-230.02"/>
<polygon fill="#757575" stroke="#757575" points="365.94,-233.06 376.17,-235.81 369.89,-227.28 365.94,-233.06"/>
</g>
<!-- oxium.js&#45;&gt;constants/index.js -->
<g id="edge9" class="edge">
<title>oxium.js&#45;&gt;constants/index.js</title>
<path fill="none" stroke="#757575" d="M282.18,-152.12C351.13,-158.54 511.83,-173.49 606.22,-182.28"/>
<polygon fill="#757575" stroke="#757575" points="605.99,-185.77 616.27,-183.21 606.64,-178.8 605.99,-185.77"/>
</g>
<!-- oxium.js&#45;&gt;util/lens.js -->
<g id="edge10" class="edge">
<title>oxium.js&#45;&gt;util/lens.js</title>
<path fill="none" stroke="#757575" d="M270.33,-137C287.58,-127.76 312.87,-115.53 336.52,-109.05 386.38,-95.37 445.59,-90.51 486.09,-88.83"/>
<polygon fill="#757575" stroke="#757575" points="486.36,-92.33 496.22,-88.46 486.1,-85.33 486.36,-92.33"/>
</g>
<!-- util/oxi.js -->
<g id="node8" class="node">
<title>util/oxi.js</title>
<path fill="none" stroke="#c6c5fe" d="M421.71,-142.15C421.71,-142.15 368.47,-142.15 368.47,-142.15 364.44,-142.15 360.41,-138.12 360.41,-134.08 360.41,-134.08 360.41,-126.02 360.41,-126.02 360.41,-121.98 364.44,-117.95 368.47,-117.95 368.47,-117.95 421.71,-117.95 421.71,-117.95 425.74,-117.95 429.77,-121.98 429.77,-126.02 429.77,-126.02 429.77,-134.08 429.77,-134.08 429.77,-138.12 425.74,-142.15 421.71,-142.15"/>
<text text-anchor="middle" x="395.09" y="-126.9" font-family="Arial" font-size="14.00" fill="#c6c5fe">util/oxi.js</text>
</g>
<!-- oxium.js&#45;&gt;util/oxi.js -->
<g id="edge11" class="edge">
<title>oxium.js&#45;&gt;util/oxi.js</title>
<path fill="none" stroke="#757575" d="M282.05,-144.74C302.24,-142.09 328.33,-138.67 350.26,-135.8"/>
<polygon fill="#757575" stroke="#757575" points="350.87,-139.25 360.33,-134.48 349.96,-132.31 350.87,-139.25"/>
</g>
<!-- util/oxi.js&#45;&gt;util/lens.js -->
<g id="edge14" class="edge">
<title>util/oxi.js&#45;&gt;util/lens.js</title>
<path fill="none" stroke="#757575" d="M429.83,-119.77C446.87,-114.59 467.82,-108.21 486.46,-102.53"/>
<polygon fill="#757575" stroke="#757575" points="487.71,-105.81 496.25,-99.55 485.67,-99.11 487.71,-105.81"/>
</g>
<!-- util/debug.js -->
<g id="node9" class="node">
<title>util/debug.js</title>
<path fill="none" stroke="#c6c5fe" d="M572.17,-142.15C572.17,-142.15 497.87,-142.15 497.87,-142.15 493.84,-142.15 489.8,-138.12 489.8,-134.08 489.8,-134.08 489.8,-126.02 489.8,-126.02 489.8,-121.98 493.84,-117.95 497.87,-117.95 497.87,-117.95 572.17,-117.95 572.17,-117.95 576.2,-117.95 580.24,-121.98 580.24,-126.02 580.24,-126.02 580.24,-134.08 580.24,-134.08 580.24,-138.12 576.2,-142.15 572.17,-142.15"/>
<text text-anchor="middle" x="535.02" y="-126.9" font-family="Arial" font-size="14.00" fill="#c6c5fe">util/debug.js</text>
</g>
<!-- util/oxi.js&#45;&gt;util/debug.js -->
<g id="edge13" class="edge">
<title>util/oxi.js&#45;&gt;util/debug.js</title>
<path fill="none" stroke="#757575" d="M429.83,-130.05C444.76,-130.05 462.69,-130.05 479.44,-130.05"/>
<polygon fill="#757575" stroke="#757575" points="479.68,-133.55 489.68,-130.05 479.68,-126.55 479.68,-133.55"/>
</g>
<!-- util/debug.js&#45;&gt;constants/index.js -->
<g id="edge12" class="edge">
<title>util/debug.js&#45;&gt;constants/index.js</title>
<path fill="none" stroke="#757575" d="M565.3,-142.13C586.99,-151.08 616.75,-163.36 640.39,-173.11"/>
<polygon fill="#757575" stroke="#757575" points="639.2,-176.4 649.78,-176.98 641.87,-169.93 639.2,-176.4"/>
</g>
</g>
</svg>
